{"title":"DJ Dips - Nachale Sanu Naal Ft. Nirmal Sidhu &amp; Nav Sidhu - [PbTo","uid":5992403,"size":44321699,"categoryP":"video","categoryS":"music_videos","magnet":"?xt=urn:btih:007cfcfe0a35f2c7b3bbdffa5e72c9c8db1c10e3&amp;dn=DJ+Dips+-+Nachale+Sanu+Naal+Ft.+Nirmal+Sidhu+%26+Nav+Sidhu+-+%5BPbTo&amp;tr=udp%3A%2F%2Ftracker.openbittorrent.com%3A80&amp;tr=udp%3A%2F%2Fopen.demonii.com%3A1337&amp;tr=udp%3A%2F%2Ftracker.coppersurfer.tk%3A6969&amp;tr=udp%3A%2F%2Fexodus.desync.com%3A6969","seeders":0,"leechers":1,"uploader":"PBTONE","files":-1,"time":1290935056,"description":"      :::::::::  :::::::::   ::::::::::: ::::::::  ::::    ::: :::::::::: \n     :+:    :+: :+:    :+:      :+:    :+:    :+: :+:+:   :+: :+:         \n    +:+    +:+ +:+    +:+      +:+    +:+    +:+ :+:+:+  +:+ +:+          \n   +#++:++#+  +#++:++#+       +#+    +#+    +:+ +#+ +:+ +#+ +#++:++#      \n  +#+        +#+    +#+      +#+    +#+    +#+ +#+  +#+#+# +#+            \n #+#        #+#    #+#      #+#    #+#    #+# #+#   #+#+# #+#             \n###        #########       ###     ########  ###    #### ########## \n\n\n\nGeneral\nFormat                           : AVI\nFormat/Info                      : Audio Video Interleave\nFile size                        : 41.9 MiB\nDuration                         : 4mn 55s\nOverall bit rate                 : 1 191 Kbps\nWriting application              : MEncoder Sherpya-SVN-r30075-4.2.5\nWriting library                  : MPlayer\n\nVideo\nID                               : 0\nFormat                           : MPEG-4 Visual\nFormat profile                   : Simple@L3\nFormat settings, BVOP            : No\nFormat settings, QPel            : No\nFormat settings, GMC             : No warppoints\nFormat settings, Matrix          : Default (H.263)\nCodec ID                         : XVID\nCodec ID/Hint                    : XviD\nDuration                         : 4mn 55s\nBit rate                         : 989 Kbps\nWidth                            : 720 pixels\nHeight                           : 576 pixels\nDisplay aspect ratio             : 5:4\nFrame rate                       : 29.970 fps\nStandard                         : PAL\nColor space                      : YUV\nChroma subsampling               : 4:2:0\nBit depth                        : 8 bits\nScan type                        : Progressive\nCompression mode                 : Lossy\nBits/(Pixel*Frame)               : 0.080\nStream size                      : 34.8 MiB (83%)\nWriting library                  : XviD 1.2.1 (UTC 2008-12-04)\n\nAudio\nID                               : 1\nFormat                           : MPEG Audio\nFormat version                   : Version 1\nFormat profile                   : Layer 3\nMode                             : Joint stereo\nMode extension                   : MS Stereo\nCodec ID                         : 55\nCodec ID/Hint                    : MP3\nDuration                         : 4mn 55s\nBit rate mode                    : Variable\nBit rate                         : 192 Kbps\nChannel(s)                       : 2 channels\nSampling rate                    : 44.1 KHz\nCompression mode                 : Lossy\nStream size                      : 6.64 MiB (16%)\nAlignment                        : Aligned on interleaves\nInterleave, duration             : 26 ms (0.78 video frame)\nInterleave, preload duration     : 544 ms\n\n\n\n\nScreens:- http://imagehacks.in/share-D62A_4CF20C1F.html\n\n","torrent":{"xt":"urn:btih:007cfcfe0a35f2c7b3bbdffa5e72c9c8db1c10e3","amp;dn":"DJ+Dips+-+Nachale+Sanu+Naal+Ft.+Nirmal+Sidhu+%26+Nav+Sidhu+-+%5BPbTo","amp;tr":["udp%3A%2F%2Ftracker.openbittorrent.com%3A80","udp%3A%2F%2Fopen.demonii.com%3A1337","udp%3A%2F%2Ftracker.coppersurfer.tk%3A6969","udp%3A%2F%2Fexodus.desync.com%3A6969"],"infoHash":"007cfcfe0a35f2c7b3bbdffa5e72c9c8db1c10e3","infoHashBuffer":{"type":"Buffer","data":[0,124,252,254,10,53,242,199,179,187,223,250,94,114,201,200,219,28,16,227]},"announce":[],"urlList":[]}}